Coordinates
version=1
nRows=19
nColumns=24
inDegrees=yes

Units are S.I. units (second, meters, Newtons, ...)
Angles are in degrees.

endheader
time	pelvis_tilt	pelvis_list	pelvis_rotation	pelvis_tx	pelvis_ty	pelvis_tz	hip_flexion_r	hip_adduction_r	hip_rotation_r	knee_angle_r	ankle_angle_r	subtalar_angle_r	mtp_angle_r	hip_flexion_l	hip_adduction_l	hip_rotation_l	knee_angle_l	ankle_angle_l	subtalar_angle_l	mtp_angle_l	lumbar_extension	lumbar_bending	lumbar_rotation
      4.69000000	    -20.12880098	      4.28383406	     -8.76587973	     -1.14554464	     -0.03528854	     -0.33001704	      2.82149363	     -0.74793585	     -2.74338238	    -17.72431851	      5.68185645	      6.35370378	      8.70306562	     45.68181185	     -0.28194296	    -17.58501656	     -9.50344463	     -1.41371811	      8.87797420	     22.80404481	     18.19438514	     -0.29688314	     -2.26332585
      4.69500000	    -20.07966680	      4.41724290	     -8.96174970	     -1.13832688	     -0.03636253	     -0.32978650	      2.55801253	     -1.04024174	     -2.71447617	    -18.09577706	      5.18768060	      6.77381124	      9.09001169	     45.69449657	     -0.31379917	    -17.77784934	     -9.95798722	     -1.47592252	      8.55880586	     22.70702868	     18.22114367	     -0.45436383	     -2.12663657
      4.70000000	    -20.02368679	      4.56464169	     -9.17989774	     -1.13110771	     -0.03743019	     -0.32949875	      2.35019092	     -1.35645220	     -2.71354571	    -18.56819956	      4.66681241	      7.21692253	      9.42989203	     45.69607840	     -0.36176284	    -18.03110699	    -10.46205739	     -1.60659846	      8.19414790	     22.64773266	     18.23845993	     -0.63304769	     -2.05151636
      4.70500000	    -19.96624283	      4.77712838	     -9.37897588	     -1.12373952	     -0.03846581	     -0.32922665	      2.16172979	     -1.76426360	     -2.75520621	    -19.05565992	      4.10016456	      7.74389894	      9.89942807	     45.68559856	     -0.34526525	    -18.35699364	    -10.99640983	     -1.88633116	      7.73608647	     22.58956396	     18.28371599	     -0.88610628	     -1.93256344
      4.71000000	    -19.79627745	      4.98342918	     -9.47447743	     -1.11629014	     -0.03938123	     -0.32907973	      1.85165717	     -2.22501984	     -3.08001997	    -19.50012502	      3.37293975	      8.23287442	     11.55543568	     45.55552202	     -0.23550694	    -18.59867684	    -11.55677174	     -2.32591039	      7.13637636	     22.63472530	     18.20566763	     -1.19486168	     -1.93740623
      4.71500000	    -19.80538529	      5.21228404	     -9.75906530	     -1.10897867	     -0.04039913	     -0.32865097	      1.85584340	     -2.63576341	     -2.92798905	    -20.14297084	      2.67477685	      8.70930573	     11.88463416	     45.63084258	     -0.30952666	    -19.04219028	    -12.21640151	     -2.81904759	      6.56982101	     22.57304481	     18.31592355	     -1.44179235	     -1.75230523
      4.72000000	    -19.71144420	      5.50067181	     -9.84054255	     -1.10149934	     -0.04132283	     -0.32851189	      1.75996911	     -3.20611388	     -3.29756837	    -20.77313271	      1.86477982	      9.32039117	     13.51735048	     45.59829897	     -0.14457473	    -19.30286850	    -12.85439140	     -3.58174044	      5.70504547	     22.65649915	     18.33131532	     -1.83406785	     -1.76076782
      4.72500000	    -19.70985744	      5.83283960	    -10.07257937	     -1.09400512	     -0.04223131	     -0.32813639	      1.85474261	     -3.77593585	     -3.30458772	    -21.50543500	      0.94810524	      9.82136628	     14.61255003	     45.67130082	     -0.09147207	    -19.74768346	    -13.57526025	     -4.32214575	      4.84338801	     22.58375554	     18.47362985	     -2.20961492	     -1.61829196
      4.73000000	    -19.61511480	      6.08092603	    -10.22405464	     -1.08670987	     -0.04298617	     -0.32795740	      1.90445375	     -4.32109285	     -3.57666094	    -22.27598990	     -0.15286464	     10.33281363	     16.80719589	     45.67288046	     -0.01287301	    -19.87299330	    -14.34201121	     -5.18238319	      3.81198780	     22.46098061	     18.45008738	     -2.54191657	     -1.52668969
      4.73500000	    -19.60098192	      6.45544942	    -10.49769589	     -1.07943232	     -0.04369212	     -0.32745840	      2.16542707	     -4.92414557	     -3.37610825	    -23.22497451	     -1.22455822	     10.75567571	     17.42553927	     45.77346634	      0.03601503	    -20.21138613	    -15.16064193	     -6.05119222	      2.86245562	     22.19758615	     18.55353837	     -2.96692397	     -1.28264768
      4.74000000	    -19.53125978	      6.75475473	    -10.56510771	     -1.07211909	     -0.04435066	     -0.32740105	      2.36329248	     -5.55328132	     -3.74485526	    -24.09776730	     -2.61340786	     11.05775758	     20.67343785	     45.85240103	      0.24021319	    -20.05741696	    -16.05545125	     -6.81971835	      1.68573054	     21.53640885	     18.56181442	     -3.37859470	     -1.31243143
      4.74500000	    -19.54537051	      7.18247934	    -10.67849388	     -1.06485838	     -0.04501712	     -0.32716359	      2.78847578	     -6.26631445	     -3.81038719	    -25.19921963	     -3.91091638	     11.44662395	     22.17695428	     46.04791159	      0.48258492	    -20.03742949	    -16.98463523	     -7.57212382	      0.56723738	     20.90786364	     18.68863149	     -3.90274607	     -1.28104935
      4.75000000	    -19.53353635	      7.59028856	    -10.79599786	     -1.05767178	     -0.04556520	     -0.32696749	      3.25196468	     -6.96172999	     -3.82748067	    -26.33360154	     -5.40778897	     11.63934888	     24.21761842	     46.22917802	      0.74310708	    -19.80380176	    -17.96304992	     -8.13564361	     -0.55650396	     19.96213638	     18.77011597	     -4.40464760	     -1.20936805
      4.75500000	    -19.46293869	      7.96970474	    -10.90752200	     -1.05051798	     -0.04594362	     -0.32668043	      3.68057772	     -7.59237126	     -3.68986957	    -27.43934935	     -7.10830077	     11.39655482	     26.82566106	     46.35984367	      1.00248131	    -19.50859460	    -19.01038630	     -8.45101876	     -1.45584039	     18.64870869	     18.78308454	     -4.91108446	     -1.17396377
      4.76000000	    -19.41165616	      8.34877134	    -11.01414621	     -1.04348635	     -0.04631845	     -0.32647992	      4.23813581	     -8.22907811	     -3.53942121	    -28.70851406	     -8.83651832	     11.28924800	     28.76091542	     46.52334799	      1.28819220	    -19.13651310	    -20.06552643	     -8.64359558	     -2.38797008	     17.42364935	     18.79029059	     -5.40332312	     -1.13444877
      4.76500000	    -19.36668131	      8.74470817	    -11.09530188	     -1.03647905	     -0.04667555	     -0.32630313	      4.87071999	     -8.86736390	     -3.32394317	    -30.05885026	    -10.63289663	     11.09977528	     30.50274626	     46.69391125	      1.62496859	    -18.71625125	    -21.12900611	     -8.66329748	     -3.22145761	     16.11414651	     18.80206560	     -5.91816043	     -1.10684790
      4.77000000	    -19.29875036	      9.12230591	    -11.18277891	     -1.02955441	     -0.04695919	     -0.32612157	      5.54792715	     -9.46579565	     -3.02455471	    -31.47845539	    -12.51192466	     10.77578592	     32.08894313	     46.82621890	      1.96581251	    -18.29220119	    -22.18099707	     -8.52784827	     -3.97418390	     14.70959226	     18.77476287	     -6.41752359	     -1.07553066
      4.77500000	    -19.19144131	      9.45984202	    -11.31062918	     -1.02281852	     -0.04717788	     -0.32597444	      6.27426627	    -10.00272770	     -2.59474791	    -33.00829104	    -14.39644350	     10.47189098	     33.14921409	     46.89655389	      2.27876728	    -17.87094494	    -23.18364169	     -8.31630988	     -4.77700855	     13.53981555	     18.66988691	     -6.86096232	     -0.98273621
      4.78000000	    -19.10299887	      9.80203684	    -11.34478495	     -1.01591652	     -0.04734774	     -0.32577409	      7.00178875	    -10.50686047	     -2.20320333	    -34.49585478	    -16.38775642	      9.81634551	     34.46102147	     46.94562151	      2.64687012	    -17.54345042	    -24.17568482	     -7.85138218	     -5.17485886	     11.86669724	     18.60804282	     -7.35502495	     -1.04610693
